<?xml version="1.0" encoding="UTF-8"?>
<svg width="35px" height="38px" viewBox="0 0 35 38" version="1.1" xmlns="http://www.w3.org/2000/svg" xmlns:xlink="http://www.w3.org/1999/xlink">
    <!-- Generator: Sketch 46.2 (44496) - http://www.bohemiancoding.com/sketch -->
    <title>logo-oi-35</title>
    <desc>Created with Sketch.</desc>
    <defs>
        <linearGradient x1="16.3677833%" y1="12.2419525%" x2="90.1262351%" y2="81.4773185%" id="linearGradient-1">
            <stop stop-color="#FFFF3C" offset="0%"></stop>
            <stop stop-color="#FCF339" offset="2.587122%"></stop>
            <stop stop-color="#F2C32E" offset="13.9%"></stop>
            <stop stop-color="#EA9D25" offset="24.65%"></stop>
            <stop stop-color="#E5821E" offset="34.55%"></stop>
            <stop stop-color="#E1721A" offset="43.31%"></stop>
            <stop stop-color="#E06C19" offset="50%"></stop>
            <stop stop-color="#C72B86" offset="100%"></stop>
        </linearGradient>
    </defs>
    <g id="Page-1" stroke="none" stroke-width="1" fill="none" fill-rule="evenodd">
        <g id="Desktop" transform="translate(-197.000000, -64.000000)" fill-rule="nonzero">
            <g id="logo-oi-35" transform="translate(197.000000, 64.000000)">
                <path d="M17.235076,37.0168909 C21.9764892,37.9369831 28.9727764,37.2875063 28.9727764,29.068532 C28.9727764,15.8702356 38.8262671,13.8831458 33.3358032,5.91159131 C26.6947359,-3.74551017 4.26955037,-1.59605123 0.671018529,12.5455329 C-2.5259604,25.0788888 6.146038,34.867432 17.235076,37.0168909 Z" id="Shape" fill="url(#linearGradient-1)"></path>
                <path d="M23.3577338,15.0182612 C24.2869028,15.0182612 25.0364845,14.2699982 25.0364845,13.3424639 C25.0364845,12.422724 24.2869028,11.6666667 23.3577338,11.6666667 C22.4363729,11.6666667 21.6867912,12.4149296 21.6867912,13.3424639 C21.6789831,14.2622038 22.4285648,15.0182612 23.3577338,15.0182612 Z M23.3733501,16.2575717 C22.4285648,16.2575717 21.6633668,18.4945662 21.6633668,21.2537859 C21.6633668,24.0130055 22.4285648,26.25 23.3733501,26.25 C24.3181353,26.25 25.0833333,24.0130055 25.0833333,21.2537859 C25.0833333,18.4945662 24.3181353,16.2575717 23.3733501,16.2575717 Z M15.7604109,16.2497773 C12.9494795,16.2497773 11.0833333,18.471183 11.0833333,21.2459914 C11.0833333,24.0285943 12.9494795,26.2422056 15.7604109,26.2422056 C18.5635341,26.2422056 20.4218721,24.0285943 20.4218721,21.2459914 C20.4296802,18.4633886 18.5635341,16.2497773 15.7604109,16.2497773 Z M15.7604109,23.888295 C14.4720673,23.888295 13.7615263,22.5710404 13.7615263,21.2304026 C13.7615263,19.8897648 14.4720673,18.6114823 15.7604109,18.6114823 C17.0409463,18.6114823 17.7514873,19.8975592 17.7514873,21.2304026 C17.7592954,22.5710404 17.0487544,23.888295 15.7604109,23.888295 Z" id="Shape" fill="#FFFFFF"></path>
            </g>
        </g>
    </g>
</svg>